<!DOCTYPE svg PUBLIC "-//W3C//DTD SVG 1.1//EN" "http://www.w3.org/Graphics/SVG/1.1/DTD/svg11.dtd">
<!-- Uploaded to: SVG Repo, www.svgrepo.com, Transformed by: SVG Repo Mixer Tools -->
<svg fill="#ffffff" height="800px" width="800px" version="1.1" id="Layer_1" xmlns="http://www.w3.org/2000/svg" xmlns:xlink="http://www.w3.org/1999/xlink" viewBox="0 0 512 512" xml:space="preserve" transform="matrix(1, 0, 0, 1, 0, 0)">
<g id="SVGRepo_bgCarrier" stroke-width="0"/>
<g id="SVGRepo_tracerCarrier" stroke-linecap="round" stroke-linejoin="round" stroke="#CCCCCC" stroke-width="1.024"/>
<g id="SVGRepo_iconCarrier"> <g> <g> <path d="M294.393,122.067c2.435-5.364,3.804-11.311,3.804-17.576c0-23.525-19.139-42.664-42.664-42.664 s-42.664,19.139-42.664,42.664c0,6.264,1.368,12.211,3.803,17.575c-39.469,8.814-74.045,30.745-98.881,60.976h275.48 C368.437,152.811,333.861,130.881,294.393,122.067z M255.534,113.764c-5.113,0-9.273-4.159-9.273-9.272 c0-5.113,4.159-9.273,9.273-9.273c5.112,0,9.273,4.159,9.273,9.273C264.806,109.604,260.647,113.764,255.534,113.764z"/> </g> </g> <g> <g> <path d="M452.115,187.967c-21.504,0-40.39,11.4-50.953,28.467H96.1c-0.501,1-0.978,2.012-1.461,3.023 c-1.95-1.067-3.739-2.441-5.264-4.11L74.44,198.996c-10.161-11.123-24.628-17.503-39.693-17.503H0v73.824h16.696 c2.797,0,5.072,2.275,5.072,5.072v38.321c0,21.235,9.741,41.401,27.43,56.786c13.527,11.765,30.447,19.368,47.669,21.658 c1.201,2.345,2.434,4.675,3.741,6.967c14.762,25.897,35.977,47.875,61.351,63.559l4.035,2.493h179.08l4.035-2.493 c25.374-15.684,46.588-37.662,61.35-63.559c5.054-8.867,9.299-18.153,12.741-27.725C473.53,347.935,512,304.061,512,251.363 v-3.513C512,214.831,485.136,187.967,452.115,187.967z M478.609,251.364c0,30.895-19.27,57.356-46.413,68.049 c1.024-7.741,1.548-15.564,1.548-23.416c0-18.154-2.743-35.675-7.814-52.188c1.952-12.695,12.95-22.45,26.185-22.45 c14.608,0,26.493,11.885,26.493,26.493V251.364z"/> </g> </g> </g>
</svg>