<?xml version="1.0" encoding="iso-8859-1"?>
<!-- Uploaded to: SVG Repo, www.svgrepo.com, Generator: SVG Repo Mixer Tools -->
<svg fill="#000000" height="800px" width="800px" version="1.1" id="Layer_1" xmlns="http://www.w3.org/2000/svg" xmlns:xlink="http://www.w3.org/1999/xlink" 
	 viewBox="0 0 512.003 512.003" xml:space="preserve">
<g>
	<g>
		<path d="M110.538,34.101c-0.285-0.086-0.404-0.162-0.412-0.162c-0.148-0.217-0.147-0.873-0.019-1.063
			c0.001-0.001,0.112-0.087,0.431-0.183c8.832-2.649,13.844-11.956,11.195-20.788c-2.649-8.832-11.956-13.848-20.789-11.194
			C86.397,5.074,76.623,18.21,76.623,33.397s9.774,28.324,24.321,32.686c0.285,0.086,0.404,0.163,0.412,0.163
			c0.148,0.217,0.147,0.873,0.019,1.063c-0.001,0.001-0.112,0.087-0.431,0.183C92.112,70.141,87.1,79.448,89.749,88.28
			c2.169,7.232,8.803,11.903,15.985,11.903c1.588,0,3.204-0.228,4.804-0.709c14.546-4.363,24.321-17.499,24.321-32.686
			S125.086,38.464,110.538,34.101z"/>
	</g>
</g>
<g>
	<g>
		<path d="M199.581,34.101c-0.285-0.086-0.404-0.162-0.412-0.162c-0.148-0.217-0.147-0.873-0.019-1.063
			c0.001-0.001,0.112-0.087,0.431-0.183c8.832-2.649,13.844-11.956,11.195-20.788C208.127,3.073,198.82-1.944,189.986,0.71
			c-14.546,4.363-24.321,17.499-24.321,32.686s9.773,28.326,24.321,32.688c0.285,0.086,0.404,0.163,0.412,0.163
			c0.148,0.217,0.147,0.873,0.019,1.063c-0.001,0.001-0.112,0.087-0.431,0.183c-8.832,2.649-13.844,11.956-11.195,20.788
			c2.169,7.232,8.803,11.903,15.985,11.903c1.588,0,3.204-0.228,4.804-0.709c14.546-4.363,24.321-17.499,24.321-32.686
			S214.128,38.464,199.581,34.101z"/>
	</g>
</g>
<g>
	<g>
		<path d="M288.623,34.101c-0.285-0.086-0.404-0.162-0.412-0.162c-0.148-0.217-0.147-0.873-0.019-1.063
			c0.001-0.001,0.112-0.087,0.431-0.183c8.832-2.649,13.844-11.956,11.195-20.788S287.861-1.944,279.029,0.71
			c-14.546,4.363-24.321,17.499-24.321,32.686s9.774,28.326,24.321,32.688c0.285,0.086,0.404,0.163,0.412,0.163
			c0.148,0.217,0.147,0.873,0.019,1.063c-0.001,0.001-0.112,0.087-0.431,0.183c-8.832,2.649-13.844,11.956-11.195,20.788
			c2.169,7.232,8.803,11.903,15.985,11.903c1.588,0,3.204-0.228,4.804-0.709c14.546-4.363,24.321-17.499,24.321-32.686
			S303.171,38.464,288.623,34.101z"/>
	</g>
</g>
<g>
	<g>
		<path d="M111.306,133.571v99.477c0,18.195,14.265,33.574,32.453,34.072c18.87,0.518,34.329-14.625,34.329-33.378v-16.695
			c0-9.22,7.475-16.695,16.695-16.695c9.22,0,16.695,7.475,16.695,16.695v49.392c0,18.195,14.265,33.573,32.453,34.073
			c18.87,0.518,34.329-14.625,34.329-33.378V133.571H111.306z"/>
	</g>
</g>
<g>
	<g>
		<path d="M428.52,200.352h-50.086v-50.086c0-9.22-7.475-16.695-16.695-16.695h-50.086v133.564c0,17.837-6.946,34.609-19.559,47.223
			c-12.614,12.613-29.383,19.559-47.222,19.559c-0.001,0-0.001,0-0.002,0c-0.614,0-1.233-0.009-1.852-0.026
			c-17.682-0.485-34.161-7.889-46.403-20.847c-6.572-6.958-11.521-15.097-14.642-23.911c-10.653,7.192-23.481,11.394-37.273,11.394
			c-0.616,0-1.234-0.009-1.854-0.026c-17.682-0.485-34.161-7.889-46.403-20.847c-11.945-12.645-18.524-29.195-18.524-46.603v-99.478
			H16.7c-9.22,0-16.695,7.475-16.695,16.695v278.258c0,46.029,37.448,83.477,83.477,83.477h211.476
			c40.313,0,74.041-28.725,81.798-66.782h51.766c46.029,0,83.477-37.448,83.477-83.477v-77.912
			C511.998,237.8,474.55,200.352,428.52,200.352z M445.216,361.742c0,9.206-7.49,16.695-16.695,16.695h-50.086V267.134h50.086
			c9.206,0,16.695,7.49,16.695,16.695V361.742z"/>
	</g>
</g>
</svg>